<?xml version="1.0" encoding="UTF-8"?>
<svg id="Layer_1" data-name="Layer 1" xmlns="http://www.w3.org/2000/svg" viewBox="0 0 51.52 51.52">
  <defs>
    <style>
      .cls-1 {
        fill: #093742;
      }

      .cls-2 {
        fill: #d5c49e;
      }
    </style>
  </defs>
  <rect class="cls-1" x="0" y="0" width="51.52" height="51.52" rx="17.4" ry="17.4"/>
  <g>
    <path class="cls-2" d="M37.92,18.07c-.2,.35-.54,.68-.57,1.04-.08,1.12-.06,2.25-.01,3.37,0,.14,.36,.37,.55,.38,1.29,.03,2.58,0,3.88,.03,.44,0,.52-.16,.51-.56-.02-1.66,0-3.31-.02-4.97,0-.31-.03-.64-.1-.94-.48-2.06-2.14-3.34-4.38-3.34-7.17,0-14.33,0-21.5,0-.95,0-1.91-.02-2.86,.01-2.22,.08-4.04,1.78-4.13,3.92-.07,1.81-.03,3.63-.01,5.44,0,.14,.26,.41,.41,.41,1.36,.03,2.72,.03,4.08,0,.15,0,.42-.22,.43-.37,.2-1.53,.52-3.09-.61-4.43,3.6,.44,7.19,.44,10.71,.01-.19,.4-.52,.8-.56,1.23-.08,1.03-.04,2.07,.02,3.11,0,.16,.32,.43,.51,.44,1,.04,2,.04,2.99,0,.19,0,.49-.26,.52-.43,.22-1.51,.47-3.04-.61-4.36,3.6,.42,7.18,.44,10.75,0Z"/>
    <path class="cls-2" d="M25.84,24.29c-5.12,0-10.25,0-15.37,0-1.25,0-2.19,.57-2.76,1.66-.55,1.07-.48,2.16,.21,3.16,.66,.95,1.6,1.33,2.75,1.33,10.07-.01,20.14,0,30.2,0,.16,0,.32,0,.48,0,1.55-.11,2.79-1.41,2.83-2.96,.04-1.78-1.29-3.16-3.1-3.17-5.08-.01-10.16,0-15.24,0Z"/>
    <path class="cls-2" d="M25.77,31.4c-5.35,0-10.7,0-16.05,0-.93,0-1.31,.29-1.32,1.08-.02,1.84,0,3.67-.02,5.51,0,.37,.14,.47,.48,.46,.73-.02,1.45-.03,2.18,0,.42,.02,.48-.17,.48-.52-.02-.93-.01-1.86,0-2.79,0-1.27,.57-1.83,1.82-1.83,8.3,0,16.6,0,24.89,0,1.25,0,1.8,.57,1.81,1.84,0,.93,.02,1.86,0,2.79,0,.37,.07,.53,.49,.51,.7-.03,1.41-.03,2.11,0,.41,.02,.55-.11,.54-.54-.02-1.68,0-3.36-.01-5.03,0-1.23-.25-1.48-1.47-1.48-5.31,0-10.61,0-15.92,0Z"/>
  </g>
</svg>